<svg class="diagram-root" style="background: #f5f6f6" xmlns="http://www.w3.org/2000/svg" xmlns:xlink="http://www.w3.org/1999/xlink"><style>.diagram-root { font-family: "Helvetica Neue", sans-serif; font-size: 12px; } .t { overflow: visible; } .t-bg { y: 40; fill: #fff;   } .th { fill: #005aa0;   } .tht { fill: #fff; font-size: 14px;  } .tf { fill: #323c46; overflow: visible; } .tf.pk { fill: #005aa0; font-weight: bold; } .tf.fk { font-weight: bold; } .ty { fill: #adb1b5; font-weight: normal; text-anchor: end; } .r { fill: transparent; stroke: #c3c3c3; stroke-width: 1; } .l { stroke: 1; } .i { fill: #c2c7ce; stroke: #c2c7ce; } .i.ix { fill: #afb3b6; stroke: #000; } .fa { fill: transparent; overflow: visible; } .fa .bg.hover { fill: #f7f7f7; } .c { cy: 12; r: 4; stroke: #d2d2dc; fill: #d2d2dc; } .hr { fill: transparent; stroke: #323c46; stroke-opacity: 0.035; stroke-width: 13; } .dc { stroke: #fa5a3c; fill: #fa5a3c; } .x { stroke: white; stroke-width: 1; } .hl .th { fill: #1b9bff; } .hl .tht {  } .fhl .bg { fill: #e7f4ff; } .fhls .bg {  } .r.hl { stroke: #1b9bff; } .dim { opacity: 0.25; }</style><g class="drawing-wrapper" transform="translate(682, 659.75) scale(1,1)"><g class="rs"><path d="M -302 -242.32999999999998 m -1, 0 a 1,1 0 1,0 2,0 a 1,1 0 1,0 -2,0 M -302 -242.32999999999998 m -0.5, 0 a 0.5,0.5 0 1,0 1,0 a 0.5,0.5 0 1,0 -1,0  M-302 -242.32999999999998 L-302 -242.32999999999998 -314 -242.32999999999998 M -302 -236.32999999999998 m -1, 0 a 1,1 0 1,0 2,0 a 1,1 0 1,0 -2,0 M -302 -236.32999999999998 m -0.5, 0 a 0.5,0.5 0 1,0 1,0 a 0.5,0.5 0 1,0 -1,0  M-302 -236.32999999999998 L-302 -236.32999999999998 -309 -242.32999999999998 -302 -248.32999999999998 M -302 -248.32999999999998 m -1, 0 a 1,1 0 1,0 2,0 a 1,1 0 1,0 -2,0 M -302 -248.32999999999998 m -0.5, 0 a 0.5,0.5 0 1,0 1,0 a 0.5,0.5 0 1,0 -1,0  M-314 -242.32999999999998 Q -346.88 -242.32999999999998, -379.76 -208.66 T -445.52 -175 M -457.52 -175 m -1, 0 a 1,1 0 1,0 2,0 a 1,1 0 1,0 -2,0 M -457.52 -175 m -0.5, 0 a 0.5,0.5 0 1,0 1,0 a 0.5,0.5 0 1,0 -1,0  M-457.52 -175 L-457.52 -175 -445.52 -175 M-451.52 -169 L-451.52 -169 -451.52 -181" id="h970944380" class="r"></path><path d="M -430.61 33.44 m -1, 0 a 1,1 0 1,0 2,0 a 1,1 0 1,0 -2,0 M -430.61 33.44 m -0.5, 0 a 0.5,0.5 0 1,0 1,0 a 0.5,0.5 0 1,0 -1,0  M-430.61 33.44 L-430.61 33.44 -418.61 33.44 M -430.61 39.44 m -1, 0 a 1,1 0 1,0 2,0 a 1,1 0 1,0 -2,0 M -430.61 39.44 m -0.5, 0 a 0.5,0.5 0 1,0 1,0 a 0.5,0.5 0 1,0 -1,0  M-430.61 39.44 L-430.61 39.44 -423.61 33.44 -430.61 27.439999999999998 M -430.61 27.439999999999998 m -1, 0 a 1,1 0 1,0 2,0 a 1,1 0 1,0 -2,0 M -430.61 27.439999999999998 m -0.5, 0 a 0.5,0.5 0 1,0 1,0 a 0.5,0.5 0 1,0 -1,0  M-418.61 33.44 Q -392.46 33.44, -366.3 -104.44 T -314 -242.32999999999998 M -302 -242.32999999999998 m -1, 0 a 1,1 0 1,0 2,0 a 1,1 0 1,0 -2,0 M -302 -242.32999999999998 m -0.5, 0 a 0.5,0.5 0 1,0 1,0 a 0.5,0.5 0 1,0 -1,0  M-302 -242.32999999999998 L-302 -242.32999999999998 -314 -242.32999999999998 M-308 -236.32999999999998 L-308 -236.32999999999998 -308 -248.32999999999998" id="h2383191770" class="r"></path><path d="M -282.67 -42 m -1, 0 a 1,1 0 1,0 2,0 a 1,1 0 1,0 -2,0 M -282.67 -42 m -0.5, 0 a 0.5,0.5 0 1,0 1,0 a 0.5,0.5 0 1,0 -1,0  M-282.67 -42 L-282.67 -42 -294.67 -42 M -282.67 -36 m -1, 0 a 1,1 0 1,0 2,0 a 1,1 0 1,0 -2,0 M -282.67 -36 m -0.5, 0 a 0.5,0.5 0 1,0 1,0 a 0.5,0.5 0 1,0 -1,0  M-282.67 -36 L-282.67 -36 -289.67 -42 -282.67 -48 M -282.67 -48 m -1, 0 a 1,1 0 1,0 2,0 a 1,1 0 1,0 -2,0 M -282.67 -48 m -0.5, 0 a 0.5,0.5 0 1,0 1,0 a 0.5,0.5 0 1,0 -1,0  M-294.67 -42 Q -332.38 -42, -370.09 -133.5 T -445.52 -225 M -457.52 -225 m -1, 0 a 1,1 0 1,0 2,0 a 1,1 0 1,0 -2,0 M -457.52 -225 m -0.5, 0 a 0.5,0.5 0 1,0 1,0 a 0.5,0.5 0 1,0 -1,0  M-457.52 -225 L-457.52 -225 -445.52 -225 M-451.52 -219 L-451.52 -219 -451.52 -231" id="h12045572" class="r"></path><path d="M 30.92 -497.75 m -1, 0 a 1,1 0 1,0 2,0 a 1,1 0 1,0 -2,0 M 30.92 -497.75 m -0.5, 0 a 0.5,0.5 0 1,0 1,0 a 0.5,0.5 0 1,0 -1,0  M30.92 -497.75 L30.92 -497.75 18.92 -497.75 M 30.92 -491.75 m -1, 0 a 1,1 0 1,0 2,0 a 1,1 0 1,0 -2,0 M 30.92 -491.75 m -0.5, 0 a 0.5,0.5 0 1,0 1,0 a 0.5,0.5 0 1,0 -1,0  M30.92 -491.75 L30.92 -491.75 23.92 -497.75 30.92 -503.75 M 30.92 -503.75 m -1, 0 a 1,1 0 1,0 2,0 a 1,1 0 1,0 -2,0 M 30.92 -503.75 m -0.5, 0 a 0.5,0.5 0 1,0 1,0 a 0.5,0.5 0 1,0 -1,0  M18.92 -497.75 Q -8.19 -497.75, -35.3 -370.04 T -89.52 -242.32999999999998 M -101.52 -242.32999999999998 m -1, 0 a 1,1 0 1,0 2,0 a 1,1 0 1,0 -2,0 M -101.52 -242.32999999999998 m -0.5, 0 a 0.5,0.5 0 1,0 1,0 a 0.5,0.5 0 1,0 -1,0  M-101.52 -242.32999999999998 L-101.52 -242.32999999999998 -89.52 -242.32999999999998 M-95.52 -236.32999999999998 L-95.52 -236.32999999999998 -95.52 -248.32999999999998" id="h2239533202" class="r"></path><path d="M 30.92 -372.75 m -1, 0 a 1,1 0 1,0 2,0 a 1,1 0 1,0 -2,0 M 30.92 -372.75 m -0.5, 0 a 0.5,0.5 0 1,0 1,0 a 0.5,0.5 0 1,0 -1,0  M30.92 -372.75 L30.92 -372.75 18.92 -372.75 M 30.92 -366.75 m -1, 0 a 1,1 0 1,0 2,0 a 1,1 0 1,0 -2,0 M 30.92 -366.75 m -0.5, 0 a 0.5,0.5 0 1,0 1,0 a 0.5,0.5 0 1,0 -1,0  M30.92 -366.75 L30.92 -366.75 23.92 -372.75 30.92 -378.75 M 30.92 -378.75 m -1, 0 a 1,1 0 1,0 2,0 a 1,1 0 1,0 -2,0 M 30.92 -378.75 m -0.5, 0 a 0.5,0.5 0 1,0 1,0 a 0.5,0.5 0 1,0 -1,0  M18.92 -372.75 Q -90.46 -372.75, -199.84 -182.15 T -418.61 8.439999999999998 M -430.61 8.439999999999998 m -1, 0 a 1,1 0 1,0 2,0 a 1,1 0 1,0 -2,0 M -430.61 8.439999999999998 m -0.5, 0 a 0.5,0.5 0 1,0 1,0 a 0.5,0.5 0 1,0 -1,0  M-430.61 8.439999999999998 L-430.61 8.439999999999998 -418.61 8.439999999999998 M-424.61 14.439999999999998 L-424.61 14.439999999999998 -424.61 2.4399999999999977" id="h2939012507" class="r"></path><path d="M -7.33 26 m -1, 0 a 1,1 0 1,0 2,0 a 1,1 0 1,0 -2,0 M -7.33 26 m -0.5, 0 a 0.5,0.5 0 1,0 1,0 a 0.5,0.5 0 1,0 -1,0  M-7.33 26 L-7.33 26 -19.33 26 M -7.33 32 m -1, 0 a 1,1 0 1,0 2,0 a 1,1 0 1,0 -2,0 M -7.33 32 m -0.5, 0 a 0.5,0.5 0 1,0 1,0 a 0.5,0.5 0 1,0 -1,0  M-7.33 32 L-7.33 32 -14.33 26 -7.33 20 M -7.33 20 m -1, 0 a 1,1 0 1,0 2,0 a 1,1 0 1,0 -2,0 M -7.33 20 m -0.5, 0 a 0.5,0.5 0 1,0 1,0 a 0.5,0.5 0 1,0 -1,0  M-19.33 26 C -69.33 26, -92.28 -572.75, 18.92 -572.75 M 30.92 -572.75 m -1, 0 a 1,1 0 1,0 2,0 a 1,1 0 1,0 -2,0 M 30.92 -572.75 m -0.5, 0 a 0.5,0.5 0 1,0 1,0 a 0.5,0.5 0 1,0 -1,0  M30.92 -572.75 L30.92 -572.75 18.92 -572.75 M24.92 -566.75 L24.92 -566.75 24.92 -578.75" id="h573851008" class="r"></path><path d="M -314.34 -360.33000000000004 m -1, 0 a 1,1 0 1,0 2,0 a 1,1 0 1,0 -2,0 M -314.34 -360.33000000000004 m -0.5, 0 a 0.5,0.5 0 1,0 1,0 a 0.5,0.5 0 1,0 -1,0  M-314.34 -360.33000000000004 L-314.34 -360.33000000000004 -326.34 -360.33000000000004 M -314.34 -354.33000000000004 m -1, 0 a 1,1 0 1,0 2,0 a 1,1 0 1,0 -2,0 M -314.34 -354.33000000000004 m -0.5, 0 a 0.5,0.5 0 1,0 1,0 a 0.5,0.5 0 1,0 -1,0  M-314.34 -354.33000000000004 L-314.34 -354.33000000000004 -321.34 -360.33000000000004 -314.34 -366.33000000000004 M -314.34 -366.33000000000004 m -1, 0 a 1,1 0 1,0 2,0 a 1,1 0 1,0 -2,0 M -314.34 -366.33000000000004 m -0.5, 0 a 0.5,0.5 0 1,0 1,0 a 0.5,0.5 0 1,0 -1,0  M-326.34 -360.33000000000004 Q -356.13 -360.33000000000004, -385.93 -292.67 T -445.52 -225 M -457.52 -225 m -1, 0 a 1,1 0 1,0 2,0 a 1,1 0 1,0 -2,0 M -457.52 -225 m -0.5, 0 a 0.5,0.5 0 1,0 1,0 a 0.5,0.5 0 1,0 -1,0  M-457.52 -225 L-457.52 -225 -445.52 -225 M-451.52 -219 L-451.52 -219 -451.52 -231" id="h3914124776" class="r"></path><path d="M 345.33 -117.33000000000001 m -1, 0 a 1,1 0 1,0 2,0 a 1,1 0 1,0 -2,0 M 345.33 -117.33000000000001 m -0.5, 0 a 0.5,0.5 0 1,0 1,0 a 0.5,0.5 0 1,0 -1,0  M345.33 -117.33000000000001 L345.33 -117.33000000000001 333.33 -117.33000000000001 M 345.33 -111.33000000000001 m -1, 0 a 1,1 0 1,0 2,0 a 1,1 0 1,0 -2,0 M 345.33 -111.33000000000001 m -0.5, 0 a 0.5,0.5 0 1,0 1,0 a 0.5,0.5 0 1,0 -1,0  M345.33 -111.33000000000001 L345.33 -111.33000000000001 338.33 -117.33000000000001 345.33 -123.33000000000001 M 345.33 -123.33000000000001 m -1, 0 a 1,1 0 1,0 2,0 a 1,1 0 1,0 -2,0 M 345.33 -123.33000000000001 m -0.5, 0 a 0.5,0.5 0 1,0 1,0 a 0.5,0.5 0 1,0 -1,0  M333.33 -117.33000000000001 Q 300.46 -117.33000000000001, 267.58 -58.17 T 201.82 1 M 189.82 1 m -1, 0 a 1,1 0 1,0 2,0 a 1,1 0 1,0 -2,0 M 189.82 1 m -0.5, 0 a 0.5,0.5 0 1,0 1,0 a 0.5,0.5 0 1,0 -1,0  M189.82 1 L189.82 1 201.82 1 M195.82 7 L195.82 7 195.82 -5" id="h3001651299" class="r"></path><path d="M 560.87 -422.29 m -1, 0 a 1,1 0 1,0 2,0 a 1,1 0 1,0 -2,0 M 560.87 -422.29 m -0.5, 0 a 0.5,0.5 0 1,0 1,0 a 0.5,0.5 0 1,0 -1,0  M560.87 -422.29 L560.87 -422.29 572.87 -422.29 M 560.87 -416.29 m -1, 0 a 1,1 0 1,0 2,0 a 1,1 0 1,0 -2,0 M 560.87 -416.29 m -0.5, 0 a 0.5,0.5 0 1,0 1,0 a 0.5,0.5 0 1,0 -1,0  M560.87 -416.29 L560.87 -416.29 567.87 -422.29 560.87 -428.29 M 560.87 -428.29 m -1, 0 a 1,1 0 1,0 2,0 a 1,1 0 1,0 -2,0 M 560.87 -428.29 m -0.5, 0 a 0.5,0.5 0 1,0 1,0 a 0.5,0.5 0 1,0 -1,0  M572.87 -422.29 Q 598.84 -422.29, 624.8 -476.88 T 676.72 -531.48 M 688.72 -531.48 m -1, 0 a 1,1 0 1,0 2,0 a 1,1 0 1,0 -2,0 M 688.72 -531.48 m -0.5, 0 a 0.5,0.5 0 1,0 1,0 a 0.5,0.5 0 1,0 -1,0  M688.72 -531.48 L688.72 -531.48 676.72 -531.48 M682.72 -525.48 L682.72 -525.48 682.72 -537.48" id="h1778667161" class="r"></path><path d="M 363.72 -397.29 m -1, 0 a 1,1 0 1,0 2,0 a 1,1 0 1,0 -2,0 M 363.72 -397.29 m -0.5, 0 a 0.5,0.5 0 1,0 1,0 a 0.5,0.5 0 1,0 -1,0  M363.72 -397.29 L363.72 -397.29 351.72 -397.29 M 363.72 -391.29 m -1, 0 a 1,1 0 1,0 2,0 a 1,1 0 1,0 -2,0 M 363.72 -391.29 m -0.5, 0 a 0.5,0.5 0 1,0 1,0 a 0.5,0.5 0 1,0 -1,0  M363.72 -391.29 L363.72 -391.29 356.72 -397.29 363.72 -403.29 M 363.72 -403.29 m -1, 0 a 1,1 0 1,0 2,0 a 1,1 0 1,0 -2,0 M 363.72 -403.29 m -0.5, 0 a 0.5,0.5 0 1,0 1,0 a 0.5,0.5 0 1,0 -1,0  M351.72 -397.29 Q 333.48 -397.29, 315.24 -485.02 T 278.76 -572.75 M 266.76 -572.75 m -1, 0 a 1,1 0 1,0 2,0 a 1,1 0 1,0 -2,0 M 266.76 -572.75 m -0.5, 0 a 0.5,0.5 0 1,0 1,0 a 0.5,0.5 0 1,0 -1,0  M266.76 -572.75 L266.76 -572.75 278.76 -572.75 M272.76 -566.75 L272.76 -566.75 272.76 -578.75" id="h4043626214" class="r"></path></g><g class="hrs"></g><g class="ts"><svg width="202.48" height="150" x="-660" y="-282" id="h3066938024" class="t"><rect height="40" width="202.48" class="th"></rect><text x="13" y="25" class="tht">Airports</text><rect height="110" width="202.48" class="t-bg"></rect><text x="13" y="61" class="tf pk">AirportCode<tspan x="189.48" class="ty">VARCHAR(3)</tspan></text><path d="M7,14A2,2 0 0,1 5,12A2,2 0 0,1 7,10A2,2 0 0,1 9,12A2,2 0 0,1 7,14M12.65,10C11.83,7.67 9.61,6 7, 6A6, 6 0 0, 0 1, 12A6, 6 0 0, 0 7, 18C9.61, 18 11.83, 16.33 12.65, 14H17V18H21V14H23V10H12.65Z" class="i pk" transform="translate(97.02882812499999, 48) scale(0.65)"></path><text x="13" y="86" class="tf">AirportName<tspan x="189.48" class="ty">VARCHAR(255)</tspan></text><text x="13" y="111" class="tf fk">AirlineCode<tspan x="189.48" class="ty">int</tspan></text><text x="13" y="136" class="tf">Location<tspan x="189.48" class="ty">VARCHAR(255)</tspan></text></svg><svg width="200.48" height="100" x="-302" y="-299.33" id="h1683363968" class="t"><rect height="40" width="200.48" class="th"></rect><text x="13" y="25" class="tht">Airlines</text><rect height="60" width="200.48" class="t-bg"></rect><text x="13" y="61" class="tf pk">AirlineCode<tspan x="187.48" class="ty">VARCHAR(3)</tspan></text><path d="M7,14A2,2 0 0,1 5,12A2,2 0 0,1 7,10A2,2 0 0,1 9,12A2,2 0 0,1 7,14M12.65,10C11.83,7.67 9.61,6 7, 6A6, 6 0 0, 0 1, 12A6, 6 0 0, 0 7, 18C9.61, 18 11.83, 16.33 12.65, 14H17V18H21V14H23V10H12.65Z" class="i pk" transform="translate(95.02882812499999, 48) scale(0.65)"></path><text x="13" y="86" class="tf">AirlineName<tspan x="187.48" class="ty">VARCHAR(255)</tspan></text></svg><svg width="202.5" height="200" x="-633.11" y="-48.56" id="h757736859" class="t"><rect height="40" width="202.5" class="th"></rect><text x="13" y="25" class="tht">AircraftModels</text><rect height="160" width="202.5" class="t-bg"></rect><text x="13" y="61" class="tf pk">ModelID<tspan x="189.5" class="ty">INT</tspan></text><path d="M7,14A2,2 0 0,1 5,12A2,2 0 0,1 7,10A2,2 0 0,1 9,12A2,2 0 0,1 7,14M12.65,10C11.83,7.67 9.61,6 7, 6A6, 6 0 0, 0 1, 12A6, 6 0 0, 0 7, 18C9.61, 18 11.83, 16.33 12.65, 14H17V18H21V14H23V10H12.65Z" class="i pk" transform="translate(150.169921875, 48) scale(0.65)"></path><text x="13" y="86" class="tf fk">AirlineCode<tspan x="189.5" class="ty">VARCHAR(3)</tspan></text><text x="13" y="111" class="tf">ModelName<tspan x="189.5" class="ty">VARCHAR(255)</tspan></text><text x="13" y="136" class="tf">Capacity<tspan x="189.5" class="ty">INT</tspan></text><text x="13" y="161" class="tf">Manufacturer<tspan x="189.5" class="ty">VARCHAR(255)</tspan></text><text x="13" y="186" class="tf">YearOfManufacture<tspan x="189.5" class="ty">INT</tspan></text></svg><svg width="209.15" height="100" x="-282.67" y="-99" id="h3023517112" class="t"><rect height="40" width="209.15" class="th"></rect><text x="13" y="25" class="tht">Terminals</text><rect height="60" width="209.15" class="t-bg"></rect><text x="13" y="61" class="tf fk">AirportCode<tspan x="196.15" class="ty">VARCHAR(3)</tspan></text><text x="13" y="86" class="tf">TerminalName<tspan x="196.15" class="ty">VARCHAR(255)</tspan></text></svg><svg width="235.84" height="275" x="30.92" y="-629.75" id="h361529166" class="t"><rect height="40" width="235.84" class="th"></rect><text x="13" y="25" class="tht">Flights</text><rect height="235" width="235.84" class="t-bg"></rect><text x="13" y="61" class="tf pk">FlightNumber<tspan x="222.84" class="ty">VARCHAR(10)</tspan></text><path d="M7,14A2,2 0 0,1 5,12A2,2 0 0,1 7,10A2,2 0 0,1 9,12A2,2 0 0,1 7,14M12.65,10C11.83,7.67 9.61,6 7, 6A6, 6 0 0, 0 1, 12A6, 6 0 0, 0 7, 18C9.61, 18 11.83, 16.33 12.65, 14H17V18H21V14H23V10H12.65Z" class="i pk" transform="translate(123.715, 48) scale(0.65)"></path><text x="13" y="86" class="tf fk">DepartureAirportCode<tspan x="222.84" class="ty">VARCHAR(3)</tspan></text><text x="13" y="111" class="tf fk">ArrivalAirportCode<tspan x="222.84" class="ty">VARCHAR(3)</tspan></text><text x="13" y="136" class="tf fk">AirlineCode<tspan x="222.84" class="ty">VARCHAR(3)</tspan></text><text x="13" y="161" class="tf">DepartureTime<tspan x="222.84" class="ty">TIMESTAMP</tspan></text><text x="13" y="186" class="tf">ArrivalTime<tspan x="222.84" class="ty">TIMESTAMP</tspan></text><text x="13" y="211" class="tf">AvailableSeats<tspan x="222.84" class="ty">INT</tspan></text><text x="13" y="236" class="tf">Price<tspan x="222.84" class="ty">DECIMAL</tspan></text><text x="13" y="261" class="tf fk">ModelID<tspan x="222.84" class="ty">INT</tspan></text></svg><svg width="180.46" height="200" x="688.72" y="-588.48" id="h524808590" class="t"><rect height="40" width="180.46" class="th"></rect><text x="13" y="25" class="tht">Passengers</text><rect height="160" width="180.46" class="t-bg"></rect><text x="13" y="61" class="tf pk">PassengerID<tspan x="167.46" class="ty">INT</tspan></text><path d="M7,14A2,2 0 0,1 5,12A2,2 0 0,1 7,10A2,2 0 0,1 9,12A2,2 0 0,1 7,14M12.65,10C11.83,7.67 9.61,6 7, 6A6, 6 0 0, 0 1, 12A6, 6 0 0, 0 7, 18C9.61, 18 11.83, 16.33 12.65, 14H17V18H21V14H23V10H12.65Z" class="i pk" transform="translate(128.129921875, 48) scale(0.65)"></path><text x="13" y="86" class="tf">FirstName<tspan x="167.46" class="ty">VARCHAR(50)</tspan></text><text x="13" y="111" class="tf">LastName<tspan x="167.46" class="ty">VARCHAR(50)</tspan></text><text x="13" y="136" class="tf">Email<tspan x="167.46" class="ty">VARCHAR(100)</tspan></text><text x="13" y="161" class="tf">Phone<tspan x="167.46" class="ty">VARCHAR(15)</tspan></text><text x="13" y="186" class="tf">Address<tspan x="167.46" class="ty">VARCHAR(255)</tspan></text></svg><svg width="197.15" height="225" x="-7.33" y="-56" id="h3148254657" class="t"><rect height="40" width="197.15" class="th"></rect><text x="13" y="25" class="tht">Bookings</text><rect height="185" width="197.15" class="t-bg"></rect><text x="13" y="61" class="tf pk">BookingID<tspan x="184.15" class="ty">INT</tspan></text><path d="M7,14A2,2 0 0,1 5,12A2,2 0 0,1 7,10A2,2 0 0,1 9,12A2,2 0 0,1 7,14M12.65,10C11.83,7.67 9.61,6 7, 6A6, 6 0 0, 0 1, 12A6, 6 0 0, 0 7, 18C9.61, 18 11.83, 16.33 12.65, 14H17V18H21V14H23V10H12.65Z" class="i pk" transform="translate(144.819921875, 48) scale(0.65)"></path><text x="13" y="86" class="tf fk">FlightNumber<tspan x="184.15" class="ty">VARCHAR(10)</tspan></text><text x="13" y="111" class="tf fk">PassengerID<tspan x="184.15" class="ty">INT</tspan></text><text x="13" y="136" class="tf">BookingDate<tspan x="184.15" class="ty">TIMESTAMP</tspan></text><text x="13" y="161" class="tf">TotalPrice<tspan x="184.15" class="ty">DECIMAL</tspan></text><text x="13" y="186" class="tf">NumberOfPassengers<tspan x="184.15" class="ty">INT</tspan></text><text x="13" y="211" class="tf">NumberOfSeats<tspan x="184.15" class="ty">INT</tspan></text></svg><svg width="182.48" height="175" x="-314.34" y="-517.33" id="h1928446310" class="t"><rect height="40" width="182.48" class="th"></rect><text x="13" y="25" class="tht">Staff</text><rect height="135" width="182.48" class="t-bg"></rect><text x="13" y="61" class="tf pk">StaffID<tspan x="169.48" class="ty">INT</tspan></text><path d="M7,14A2,2 0 0,1 5,12A2,2 0 0,1 7,10A2,2 0 0,1 9,12A2,2 0 0,1 7,14M12.65,10C11.83,7.67 9.61,6 7, 6A6, 6 0 0, 0 1, 12A6, 6 0 0, 0 7, 18C9.61, 18 11.83, 16.33 12.65, 14H17V18H21V14H23V10H12.65Z" class="i pk" transform="translate(130.149921875, 48) scale(0.65)"></path><text x="13" y="86" class="tf">FirstName<tspan x="169.48" class="ty">VARCHAR(50)</tspan></text><text x="13" y="111" class="tf">LastName<tspan x="169.48" class="ty">VARCHAR(50)</tspan></text><text x="13" y="136" class="tf">JobTitle<tspan x="169.48" class="ty">VARCHAR(255)</tspan></text><text x="13" y="161" class="tf fk">AirportCode<tspan x="169.48" class="ty">VARCHAR(3)</tspan></text></svg><svg width="191.82" height="150" x="345.33" y="-199.33" id="h2940144203" class="t"><rect height="40" width="191.82" class="th"></rect><text x="13" y="25" class="tht">Luggage</text><rect height="110" width="191.82" class="t-bg"></rect><text x="13" y="61" class="tf pk">LuggageID<tspan x="178.82" class="ty">INT</tspan></text><path d="M7,14A2,2 0 0,1 5,12A2,2 0 0,1 7,10A2,2 0 0,1 9,12A2,2 0 0,1 7,14M12.65,10C11.83,7.67 9.61,6 7, 6A6, 6 0 0, 0 1, 12A6, 6 0 0, 0 7, 18C9.61, 18 11.83, 16.33 12.65, 14H17V18H21V14H23V10H12.65Z" class="i pk" transform="translate(139.489921875, 48) scale(0.65)"></path><text x="13" y="86" class="tf fk">BookingID<tspan x="178.82" class="ty">int</tspan></text><text x="13" y="111" class="tf">Description<tspan x="178.82" class="ty">VARCHAR(255)</tspan></text><text x="13" y="136" class="tf">Status<tspan x="178.82" class="ty">VARCHAR(50)</tspan></text></svg><svg width="197.15" height="125" x="363.72" y="-504.29" id="h3935421454" class="t"><rect height="40" width="197.15" class="th"></rect><text x="13" y="25" class="tht">PassengerFlights</text><rect height="85" width="197.15" class="t-bg"></rect><text x="13" y="61" class="tf pk">PassengerFlightID<tspan x="184.15" class="ty">INT</tspan></text><path d="M7,14A2,2 0 0,1 5,12A2,2 0 0,1 7,10A2,2 0 0,1 9,12A2,2 0 0,1 7,14M12.65,10C11.83,7.67 9.61,6 7, 6A6, 6 0 0, 0 1, 12A6, 6 0 0, 0 7, 18C9.61, 18 11.83, 16.33 12.65, 14H17V18H21V14H23V10H12.65Z" class="i pk" transform="translate(144.819921875, 48) scale(0.65)"></path><text x="13" y="86" class="tf fk">PassengerID<tspan x="184.15" class="ty">INT</tspan></text><text x="13" y="111" class="tf fk">FlightNumber<tspan x="184.15" class="ty">VARCHAR(10)</tspan></text></svg></g></g><text class="qdbd-link" x="10" y="20">www.quickdatabasediagrams.com</text></svg>